<mxfile host="app.diagrams.net" modified="2023-01-21T06:27:24.790Z" agent="5.0 (Windows NT 10.0; Win64; x64) AppleWebKit/537.36 (KHTML, like Gecko) Chrome/109.0.0.0 Safari/537.36" etag="-DoBSwGqeXr6INiZdZBd" version="20.8.10" type="github">
  <diagram id="PePgDc4Fgp4NGQuZR6XY" name="Halaman-1">
    <mxGraphModel dx="1167" dy="1806" grid="1" gridSize="10" guides="1" tooltips="1" connect="1" arrows="1" fold="1" page="1" pageScale="1" pageWidth="827" pageHeight="1169" math="0" shadow="0">
      <root>
        <mxCell id="0" />
        <mxCell id="1" parent="0" />
        <mxCell id="CbqT1t1OlGqayhECcvoB-5" style="edgeStyle=orthogonalEdgeStyle;rounded=0;orthogonalLoop=1;jettySize=auto;html=1;entryX=0.5;entryY=0;entryDx=0;entryDy=0;" parent="1" source="omr11UL6CWaMo5AYrP2m-1" target="CbqT1t1OlGqayhECcvoB-2" edge="1">
          <mxGeometry relative="1" as="geometry" />
        </mxCell>
        <mxCell id="omr11UL6CWaMo5AYrP2m-1" value="Mulai" style="html=1;overflow=block;blockSpacing=1;whiteSpace=wrap;rounded=1;arcSize=50;fontSize=16.7;fontColor=#3a414a;spacing=3.8;strokeColor=#3a414a;strokeOpacity=100;strokeWidth=0.8;lucidId=e4Xmhgmwot.s;" parent="1" vertex="1">
          <mxGeometry x="665" y="-60" width="120" height="60" as="geometry" />
        </mxCell>
        <mxCell id="omr11UL6CWaMo5AYrP2m-2" value="" style="html=1;jettySize=18;whiteSpace=wrap;fontSize=13;strokeColor=#3a414a;strokeOpacity=100;strokeWidth=0.8;rounded=1;arcSize=12;edgeStyle=orthogonalEdgeStyle;startArrow=none;endArrow=block;endFill=1;entryX=0.5;entryY=-0.006;entryPerimeter=0;lucidId=U7XmeqWrZ1up;" parent="1" source="CbqT1t1OlGqayhECcvoB-2" target="omr11UL6CWaMo5AYrP2m-61" edge="1">
          <mxGeometry width="100" height="100" relative="1" as="geometry">
            <Array as="points">
              <mxPoint x="1230" y="110" />
            </Array>
            <mxPoint x="724" y="110" as="sourcePoint" />
          </mxGeometry>
        </mxCell>
        <mxCell id="omr11UL6CWaMo5AYrP2m-3" value="" style="html=1;jettySize=18;whiteSpace=wrap;fontSize=13;strokeColor=#3a414a;strokeOpacity=100;strokeWidth=0.8;rounded=1;arcSize=12;edgeStyle=orthogonalEdgeStyle;startArrow=none;endArrow=block;endFill=1;entryX=0.5;entryY=-0.005;entryPerimeter=0;lucidId=i9Xmvf0f2HKs;" parent="1" target="omr11UL6CWaMo5AYrP2m-4" edge="1">
          <mxGeometry width="100" height="100" relative="1" as="geometry">
            <Array as="points">
              <mxPoint x="484" y="110" />
              <mxPoint x="484" y="110" />
              <mxPoint x="252" y="110" />
            </Array>
            <mxPoint x="724" y="110" as="sourcePoint" />
          </mxGeometry>
        </mxCell>
        <mxCell id="omr11UL6CWaMo5AYrP2m-4" value="Ajukan Pengaduan" style="html=1;overflow=block;blockSpacing=1;whiteSpace=wrap;shape=process;fontSize=16.7;fontColor=#3a414a;spacing=3.8;strokeColor=#3a414a;strokeOpacity=100;rounded=1;absoluteArcSize=1;arcSize=9;strokeWidth=0.8;lucidId=Y-XmtT-mhfiX;" parent="1" vertex="1">
          <mxGeometry x="184" y="135" width="135" height="75" as="geometry" />
        </mxCell>
        <mxCell id="omr11UL6CWaMo5AYrP2m-5" value="Hapus Pengaduan" style="html=1;overflow=block;blockSpacing=1;whiteSpace=wrap;shape=process;fontSize=16.7;fontColor=#3a414a;spacing=3.8;strokeColor=#3a414a;strokeOpacity=100;rounded=1;absoluteArcSize=1;arcSize=9;strokeWidth=0.8;lucidId=WfYm5tjSRPaH;" parent="1" vertex="1">
          <mxGeometry x="784" y="135" width="120" height="60" as="geometry" />
        </mxCell>
        <mxCell id="omr11UL6CWaMo5AYrP2m-70" value="" style="edgeStyle=orthogonalEdgeStyle;rounded=0;orthogonalLoop=1;jettySize=auto;html=1;fontSize=11;" parent="1" source="omr11UL6CWaMo5AYrP2m-6" target="omr11UL6CWaMo5AYrP2m-68" edge="1">
          <mxGeometry relative="1" as="geometry" />
        </mxCell>
        <mxCell id="omr11UL6CWaMo5AYrP2m-6" value="List Pengaduan" style="html=1;overflow=block;blockSpacing=1;whiteSpace=wrap;shape=process;fontSize=16.7;fontColor=#3a414a;spacing=3.8;strokeColor=#3a414a;strokeOpacity=100;rounded=1;absoluteArcSize=1;arcSize=9;strokeWidth=0.8;lucidId=0fYm7MSl2YZj;" parent="1" vertex="1">
          <mxGeometry x="990" y="135" width="120" height="55" as="geometry" />
        </mxCell>
        <mxCell id="omr11UL6CWaMo5AYrP2m-7" value="" style="html=1;jettySize=18;whiteSpace=wrap;fontSize=13;strokeColor=#3a414a;strokeOpacity=100;strokeWidth=0.8;rounded=1;arcSize=12;edgeStyle=orthogonalEdgeStyle;startArrow=none;endArrow=block;endFill=1;entryX=0.5;entryY=-0.005;entryPerimeter=0;lucidId=~fYm7LWLcRGL;" parent="1" target="omr11UL6CWaMo5AYrP2m-8" edge="1">
          <mxGeometry width="100" height="100" relative="1" as="geometry">
            <Array as="points" />
            <mxPoint x="582" y="110" as="sourcePoint" />
          </mxGeometry>
        </mxCell>
        <mxCell id="omr11UL6CWaMo5AYrP2m-8" value="Edit Pengaduan" style="html=1;overflow=block;blockSpacing=1;whiteSpace=wrap;shape=process;fontSize=16.7;fontColor=#3a414a;spacing=3.8;strokeColor=#3a414a;strokeOpacity=100;rounded=1;absoluteArcSize=1;arcSize=9;strokeWidth=0.8;lucidId=hgYmPtmCanLb;" parent="1" vertex="1">
          <mxGeometry x="514" y="135" width="135" height="75" as="geometry" />
        </mxCell>
        <mxCell id="omr11UL6CWaMo5AYrP2m-9" value="" style="html=1;overflow=block;blockSpacing=1;whiteSpace=wrap;fontSize=13;spacing=0;strokeColor=#3a414a;strokeOpacity=100;rounded=1;absoluteArcSize=1;arcSize=9;rotation=-270;strokeWidth=0.8;lucidId=SgYmx5-.BC8B;" parent="1" vertex="1">
          <mxGeometry x="706" y="93" width="38" height="1" as="geometry" />
        </mxCell>
        <mxCell id="omr11UL6CWaMo5AYrP2m-10" value="" style="html=1;jettySize=18;whiteSpace=wrap;fontSize=13;strokeColor=#3a414a;strokeOpacity=100;strokeWidth=0.8;rounded=1;arcSize=12;edgeStyle=orthogonalEdgeStyle;startArrow=none;endArrow=block;endFill=1;entryX=0.506;entryY=-0.006;entryPerimeter=0;lucidId=7gYmTz.Wp.aA;" parent="1" target="omr11UL6CWaMo5AYrP2m-5" edge="1">
          <mxGeometry width="100" height="100" relative="1" as="geometry">
            <Array as="points" />
            <mxPoint x="845" y="110" as="sourcePoint" />
          </mxGeometry>
        </mxCell>
        <mxCell id="omr11UL6CWaMo5AYrP2m-11" value="&lt;font style=&quot;font-size: 11px;&quot;&gt;NIK,Nama,&lt;br&gt;Nomor Telepon&lt;br&gt;,Bidang Keluhan,&lt;br&gt;Isi Pengaduan&lt;/font&gt;" style="html=1;overflow=block;blockSpacing=1;whiteSpace=wrap;shape=parallelogram;perimeter=parallelogramPerimeter;anchorPointDirection=0;fontSize=13.3;fontColor=#3a414a;spacing=3.8;strokeColor=#3a414a;strokeOpacity=100;rounded=1;absoluteArcSize=1;arcSize=9;strokeWidth=0.8;lucidId=hiYmYtM6YZ3H;" parent="1" vertex="1">
          <mxGeometry x="160" y="240" width="170" height="80" as="geometry" />
        </mxCell>
        <mxCell id="omr11UL6CWaMo5AYrP2m-12" value="" style="html=1;jettySize=18;whiteSpace=wrap;fontSize=13;strokeColor=#3a414a;strokeOpacity=100;strokeWidth=0.8;rounded=1;arcSize=12;edgeStyle=orthogonalEdgeStyle;startArrow=none;endArrow=block;endFill=1;exitX=0.5;exitY=1.005;exitPerimeter=0;entryX=0.5;entryY=-0.004;entryPerimeter=0;lucidId=miYmqbmBRrmo;" parent="1" source="omr11UL6CWaMo5AYrP2m-4" target="omr11UL6CWaMo5AYrP2m-11" edge="1">
          <mxGeometry width="100" height="100" relative="1" as="geometry">
            <Array as="points" />
          </mxGeometry>
        </mxCell>
        <mxCell id="omr11UL6CWaMo5AYrP2m-13" value="" style="html=1;jettySize=18;whiteSpace=wrap;fontSize=13;strokeColor=#3a414a;strokeOpacity=100;strokeWidth=0.8;rounded=1;arcSize=12;edgeStyle=orthogonalEdgeStyle;startArrow=none;endArrow=block;endFill=1;exitX=0.518;exitY=1.004;exitPerimeter=0;lucidId=hmYmZ75EK0pR;" parent="1" source="omr11UL6CWaMo5AYrP2m-11" edge="1">
          <mxGeometry width="100" height="100" relative="1" as="geometry">
            <Array as="points" />
            <mxPoint x="254" y="345" as="targetPoint" />
          </mxGeometry>
        </mxCell>
        <mxCell id="omr11UL6CWaMo5AYrP2m-14" value="Save" style="html=1;overflow=block;blockSpacing=1;whiteSpace=wrap;fontSize=16.7;fontColor=#3a414a;spacing=9;strokeColor=#3a414a;strokeOpacity=100;rounded=1;absoluteArcSize=1;arcSize=9;strokeWidth=0.8;lucidId=MmYmJX1h5AUN;" parent="1" vertex="1">
          <mxGeometry x="192" y="345" width="120" height="30" as="geometry" />
        </mxCell>
        <mxCell id="omr11UL6CWaMo5AYrP2m-15" value="Database" style="html=1;overflow=block;blockSpacing=1;whiteSpace=wrap;shape=cylinder3;size=4;anchorPointDirection=0;boundedLbl=1;fontSize=16.7;fontColor=#3a414a;spacing=3.8;strokeColor=#3a414a;strokeOpacity=100;rounded=1;absoluteArcSize=1;arcSize=9;strokeWidth=0.8;lucidId=9nYmbYnD41Zh;" parent="1" vertex="1">
          <mxGeometry x="207" y="420" width="90" height="90" as="geometry" />
        </mxCell>
        <mxCell id="omr11UL6CWaMo5AYrP2m-16" value="" style="html=1;jettySize=18;whiteSpace=wrap;fontSize=13;strokeColor=#3a414a;strokeOpacity=100;strokeWidth=0.8;rounded=1;arcSize=12;edgeStyle=orthogonalEdgeStyle;startArrow=none;endArrow=block;endFill=1;exitX=0.5;exitY=1.012;exitPerimeter=0;entryX=0.5;entryY=-0.004;entryPerimeter=0;lucidId=aoYmi3EfuHnu;" parent="1" source="omr11UL6CWaMo5AYrP2m-14" target="omr11UL6CWaMo5AYrP2m-15" edge="1">
          <mxGeometry width="100" height="100" relative="1" as="geometry">
            <Array as="points" />
          </mxGeometry>
        </mxCell>
        <mxCell id="omr11UL6CWaMo5AYrP2m-17" value="Message &quot;Pengajuan Anda Berhasil ditambahkan&quot;" style="html=1;overflow=block;blockSpacing=1;whiteSpace=wrap;fontSize=15;fontColor=#3a414a;spacing=9;strokeColor=#3a414a;strokeOpacity=100;rounded=1;absoluteArcSize=1;arcSize=9;strokeWidth=0.8;lucidId=BoYmkDt50uq4;" parent="1" vertex="1">
          <mxGeometry x="192" y="555" width="120" height="90" as="geometry" />
        </mxCell>
        <mxCell id="omr11UL6CWaMo5AYrP2m-18" value="" style="html=1;jettySize=18;whiteSpace=wrap;fontSize=13;strokeColor=#3a414a;strokeOpacity=100;strokeWidth=0.8;rounded=1;arcSize=12;edgeStyle=orthogonalEdgeStyle;startArrow=none;endArrow=block;endFill=1;exitX=0.5;exitY=1.004;exitPerimeter=0;entryX=0.5;entryY=-0.004;entryPerimeter=0;lucidId=FoYm8vbIHat.;" parent="1" source="omr11UL6CWaMo5AYrP2m-15" target="omr11UL6CWaMo5AYrP2m-17" edge="1">
          <mxGeometry width="100" height="100" relative="1" as="geometry">
            <Array as="points" />
          </mxGeometry>
        </mxCell>
        <mxCell id="omr11UL6CWaMo5AYrP2m-19" value="" style="html=1;jettySize=18;whiteSpace=wrap;fontSize=13;strokeColor=#3a414a;strokeOpacity=100;strokeWidth=0.8;rounded=1;arcSize=12;edgeStyle=orthogonalEdgeStyle;startArrow=none;endArrow=block;endFill=1;exitX=0.5;exitY=1.006;exitPerimeter=0;lucidId=LrYmOcsD4UZU;" parent="1" source="omr11UL6CWaMo5AYrP2m-40" edge="1">
          <mxGeometry width="100" height="100" relative="1" as="geometry">
            <Array as="points" />
            <mxPoint x="844" y="420" as="targetPoint" />
          </mxGeometry>
        </mxCell>
        <mxCell id="omr11UL6CWaMo5AYrP2m-69" value="" style="edgeStyle=orthogonalEdgeStyle;rounded=0;orthogonalLoop=1;jettySize=auto;html=1;fontSize=11;" parent="1" source="omr11UL6CWaMo5AYrP2m-20" target="omr11UL6CWaMo5AYrP2m-21" edge="1">
          <mxGeometry relative="1" as="geometry">
            <Array as="points">
              <mxPoint x="844" y="470" />
              <mxPoint x="844" y="470" />
            </Array>
          </mxGeometry>
        </mxCell>
        <mxCell id="omr11UL6CWaMo5AYrP2m-20" value="DELETE" style="html=1;overflow=block;blockSpacing=1;whiteSpace=wrap;fontSize=16.7;fontColor=#3a414a;spacing=9;strokeColor=#3a414a;strokeOpacity=100;rounded=1;absoluteArcSize=1;arcSize=9;strokeWidth=0.8;lucidId=OrYmbmabNAfB;" parent="1" vertex="1">
          <mxGeometry x="784" y="420" width="116" height="40" as="geometry" />
        </mxCell>
        <mxCell id="omr11UL6CWaMo5AYrP2m-21" value="Database" style="html=1;overflow=block;blockSpacing=1;whiteSpace=wrap;shape=cylinder3;size=4;anchorPointDirection=0;boundedLbl=1;fontSize=16.7;fontColor=#3a414a;spacing=3.8;strokeColor=#3a414a;strokeOpacity=100;rounded=1;absoluteArcSize=1;arcSize=9;strokeWidth=0.8;lucidId=YrYmuiH~D1Xx;" parent="1" vertex="1">
          <mxGeometry x="799" y="494" width="90" height="90" as="geometry" />
        </mxCell>
        <mxCell id="omr11UL6CWaMo5AYrP2m-22" value="" style="html=1;jettySize=18;whiteSpace=wrap;fontSize=13;strokeColor=#3a414a;strokeOpacity=100;strokeWidth=0.8;rounded=1;arcSize=12;edgeStyle=orthogonalEdgeStyle;startArrow=none;endArrow=block;endFill=1;entryX=0.5;entryY=-0.004;entryPerimeter=0;lucidId=YrYmzi6_gV84;" parent="1" target="omr11UL6CWaMo5AYrP2m-21" edge="1">
          <mxGeometry width="100" height="100" relative="1" as="geometry">
            <Array as="points" />
            <mxPoint x="844" y="460" as="sourcePoint" />
          </mxGeometry>
        </mxCell>
        <mxCell id="omr11UL6CWaMo5AYrP2m-23" value="Message &quot;Pengajuan Anda Berhasil ditambahkan&quot;" style="html=1;overflow=block;blockSpacing=1;whiteSpace=wrap;fontSize=15;fontColor=#3a414a;spacing=9;strokeColor=#3a414a;strokeOpacity=100;rounded=1;absoluteArcSize=1;arcSize=9;strokeWidth=0.8;lucidId=YrYm2u6uQZ_k;" parent="1" vertex="1">
          <mxGeometry x="784" y="629" width="120" height="90" as="geometry" />
        </mxCell>
        <mxCell id="omr11UL6CWaMo5AYrP2m-24" value="" style="html=1;jettySize=18;whiteSpace=wrap;fontSize=13;strokeColor=#3a414a;strokeOpacity=100;strokeWidth=0.8;rounded=1;arcSize=12;edgeStyle=orthogonalEdgeStyle;startArrow=none;endArrow=block;endFill=1;exitX=0.5;exitY=1.004;exitPerimeter=0;entryX=0.5;entryY=-0.004;entryPerimeter=0;lucidId=YrYmVkq5MhBm;" parent="1" source="omr11UL6CWaMo5AYrP2m-21" target="omr11UL6CWaMo5AYrP2m-23" edge="1">
          <mxGeometry width="100" height="100" relative="1" as="geometry">
            <Array as="points" />
          </mxGeometry>
        </mxCell>
        <mxCell id="omr11UL6CWaMo5AYrP2m-25" value="" style="html=1;jettySize=18;whiteSpace=wrap;fontSize=13;strokeColor=#3a414a;strokeOpacity=100;strokeWidth=0.8;rounded=1;arcSize=12;edgeStyle=orthogonalEdgeStyle;startArrow=none;endArrow=block;endFill=1;exitX=0.5;exitY=1.005;exitPerimeter=0;entryX=0.5;entryY=-0.006;entryPerimeter=0;lucidId=2tYm~TIeWK5i;" parent="1" source="omr11UL6CWaMo5AYrP2m-8" target="omr11UL6CWaMo5AYrP2m-36" edge="1">
          <mxGeometry width="100" height="100" relative="1" as="geometry">
            <Array as="points" />
          </mxGeometry>
        </mxCell>
        <mxCell id="omr11UL6CWaMo5AYrP2m-26" value="Masukkan ID" style="html=1;overflow=block;blockSpacing=1;whiteSpace=wrap;shape=parallelogram;perimeter=parallelogramPerimeter;anchorPointDirection=0;fontSize=15;fontColor=#3a414a;spacing=3.8;strokeColor=#3a414a;strokeOpacity=100;rounded=1;absoluteArcSize=1;arcSize=9;strokeWidth=0.8;lucidId=VvYmGyw_WnkT;" parent="1" vertex="1">
          <mxGeometry x="522" y="315" width="120" height="60" as="geometry" />
        </mxCell>
        <mxCell id="omr11UL6CWaMo5AYrP2m-27" value="" style="html=1;jettySize=18;whiteSpace=wrap;fontSize=13;strokeColor=#3a414a;strokeOpacity=100;strokeWidth=0.8;rounded=1;arcSize=12;edgeStyle=orthogonalEdgeStyle;startArrow=none;endArrow=block;endFill=1;exitX=0.5;exitY=1.006;exitPerimeter=0;entryX=0.5;entryY=-0.006;entryPerimeter=0;lucidId=4vYmTdF19wv5;" parent="1" source="omr11UL6CWaMo5AYrP2m-36" target="omr11UL6CWaMo5AYrP2m-26" edge="1">
          <mxGeometry width="100" height="100" relative="1" as="geometry">
            <Array as="points" />
          </mxGeometry>
        </mxCell>
        <mxCell id="omr11UL6CWaMo5AYrP2m-28" value="Tampilan ID,NIK,Nama,Notlp,&#xa;Bidang,Isi" style="html=1;overflow=block;blockSpacing=1;whiteSpace=wrap;fontSize=13.3;fontColor=#3a414a;spacing=9;strokeColor=#3a414a;strokeOpacity=100;rounded=1;absoluteArcSize=1;arcSize=9;strokeWidth=0.8;lucidId=jyZmM4v7~DJ2;" parent="1" vertex="1">
          <mxGeometry x="522" y="402" width="120" height="66" as="geometry" />
        </mxCell>
        <mxCell id="omr11UL6CWaMo5AYrP2m-29" value="" style="html=1;jettySize=18;whiteSpace=wrap;fontSize=13;strokeColor=#3a414a;strokeOpacity=100;strokeWidth=0.8;rounded=1;arcSize=12;edgeStyle=orthogonalEdgeStyle;startArrow=none;endArrow=block;endFill=1;exitX=0.5;exitY=1.006;exitPerimeter=0;entryX=0.5;entryY=-0.006;entryPerimeter=0;lucidId=pyZmAuxcII~w;" parent="1" source="omr11UL6CWaMo5AYrP2m-26" target="omr11UL6CWaMo5AYrP2m-28" edge="1">
          <mxGeometry width="100" height="100" relative="1" as="geometry">
            <Array as="points" />
          </mxGeometry>
        </mxCell>
        <mxCell id="omr11UL6CWaMo5AYrP2m-30" value="Edit NIK,Nama,Notlp,&#xa;Bidang, Isi" style="html=1;overflow=block;blockSpacing=1;whiteSpace=wrap;shape=parallelogram;perimeter=parallelogramPerimeter;anchorPointDirection=0;fontSize=13.3;fontColor=#3a414a;spacing=3.8;strokeColor=#3a414a;strokeOpacity=100;rounded=1;absoluteArcSize=1;arcSize=9;strokeWidth=0.8;lucidId=SAZm1ujg4K1J;" parent="1" vertex="1">
          <mxGeometry x="522" y="494" width="128" height="72" as="geometry" />
        </mxCell>
        <mxCell id="omr11UL6CWaMo5AYrP2m-31" value="" style="html=1;jettySize=18;whiteSpace=wrap;fontSize=13;strokeColor=#3a414a;strokeOpacity=100;strokeWidth=0.8;rounded=1;arcSize=12;edgeStyle=orthogonalEdgeStyle;startArrow=none;endArrow=block;endFill=1;exitX=0.5;exitY=1.006;exitPerimeter=0;entryX=0.471;entryY=-0.005;entryPerimeter=0;lucidId=3AZmfY.bjVG9;" parent="1" source="omr11UL6CWaMo5AYrP2m-28" target="omr11UL6CWaMo5AYrP2m-30" edge="1">
          <mxGeometry width="100" height="100" relative="1" as="geometry">
            <Array as="points" />
          </mxGeometry>
        </mxCell>
        <mxCell id="omr11UL6CWaMo5AYrP2m-32" value="Database" style="html=1;overflow=block;blockSpacing=1;whiteSpace=wrap;shape=cylinder3;size=4;anchorPointDirection=0;boundedLbl=1;fontSize=16.7;fontColor=#3a414a;spacing=3.8;strokeColor=#3a414a;strokeOpacity=100;rounded=1;absoluteArcSize=1;arcSize=9;strokeWidth=0.8;lucidId=zCZmHjkFdZ0s;" parent="1" vertex="1">
          <mxGeometry x="547" y="604" width="72" height="72" as="geometry" />
        </mxCell>
        <mxCell id="omr11UL6CWaMo5AYrP2m-33" value="" style="html=1;jettySize=18;whiteSpace=wrap;fontSize=13;strokeColor=#3a414a;strokeOpacity=100;strokeWidth=0.8;rounded=1;arcSize=12;edgeStyle=orthogonalEdgeStyle;startArrow=none;endArrow=block;endFill=1;exitX=0.5;exitY=1.005;exitPerimeter=0;entryX=0.542;entryY=-0.003;entryPerimeter=0;lucidId=KCZm_Aeezyt.;" parent="1" source="omr11UL6CWaMo5AYrP2m-30" target="omr11UL6CWaMo5AYrP2m-32" edge="1">
          <mxGeometry width="100" height="100" relative="1" as="geometry">
            <Array as="points" />
          </mxGeometry>
        </mxCell>
        <mxCell id="omr11UL6CWaMo5AYrP2m-34" value="Message &quot;Data Berhasil di edit&quot;" style="html=1;overflow=block;blockSpacing=1;whiteSpace=wrap;fontSize=15;fontColor=#3a414a;spacing=9;strokeColor=#3a414a;strokeOpacity=100;rounded=1;absoluteArcSize=1;arcSize=9;strokeWidth=0.8;lucidId=ZCZm1_i5as8d;" parent="1" vertex="1">
          <mxGeometry x="525" y="705" width="116" height="60" as="geometry" />
        </mxCell>
        <mxCell id="omr11UL6CWaMo5AYrP2m-35" value="" style="html=1;jettySize=18;whiteSpace=wrap;fontSize=13;strokeColor=#3a414a;strokeOpacity=100;strokeWidth=0.8;rounded=1;arcSize=12;edgeStyle=orthogonalEdgeStyle;startArrow=none;endArrow=block;endFill=1;exitY=-0.006;exitPerimeter=0;entryY=-0.006;entryPerimeter=0;lucidId=5CZmMsmh_lhc;" parent="1" source="omr11UL6CWaMo5AYrP2m-34" target="omr11UL6CWaMo5AYrP2m-34" edge="1">
          <mxGeometry width="100" height="100" relative="1" as="geometry">
            <Array as="points">
              <mxPoint x="603" y="685" generated="1" />
              <mxPoint x="603" y="685" generated="1" />
            </Array>
          </mxGeometry>
        </mxCell>
        <mxCell id="omr11UL6CWaMo5AYrP2m-36" value="Tampilan data&#xa;ID, NIK, NAMA" style="html=1;overflow=block;blockSpacing=1;whiteSpace=wrap;shape=parallelogram;perimeter=parallelogramPerimeter;anchorPointDirection=0;fontSize=13.3;fontColor=#3a414a;spacing=3.8;strokeColor=#3a414a;strokeOpacity=100;rounded=1;absoluteArcSize=1;arcSize=9;strokeWidth=0.8;lucidId=v8_nqnCObZvt;" parent="1" vertex="1">
          <mxGeometry x="522" y="225" width="120" height="61" as="geometry" />
        </mxCell>
        <mxCell id="omr11UL6CWaMo5AYrP2m-37" value="" style="html=1;jettySize=18;whiteSpace=wrap;fontSize=13;strokeColor=#3a414a;strokeOpacity=100;strokeWidth=0.8;rounded=1;arcSize=12;edgeStyle=orthogonalEdgeStyle;startArrow=none;endArrow=block;endFill=1;entryX=0.5;entryY=-0.006;entryPerimeter=0;lucidId=u9_na~JaSPrR;" parent="1" target="omr11UL6CWaMo5AYrP2m-39" edge="1">
          <mxGeometry width="100" height="100" relative="1" as="geometry">
            <Array as="points" />
            <mxPoint x="844" y="195" as="sourcePoint" />
          </mxGeometry>
        </mxCell>
        <mxCell id="omr11UL6CWaMo5AYrP2m-38" value="" style="html=1;jettySize=18;whiteSpace=wrap;fontSize=13;strokeColor=#3a414a;strokeOpacity=100;strokeWidth=0.8;rounded=1;arcSize=12;edgeStyle=orthogonalEdgeStyle;startArrow=none;endArrow=block;endFill=1;exitX=0.5;exitY=1.006;exitPerimeter=0;lucidId=u9_nD48jltbr;" parent="1" source="omr11UL6CWaMo5AYrP2m-39" edge="1">
          <mxGeometry width="100" height="100" relative="1" as="geometry">
            <Array as="points" />
            <mxPoint x="844" y="337" as="targetPoint" />
          </mxGeometry>
        </mxCell>
        <mxCell id="omr11UL6CWaMo5AYrP2m-39" value="Tampilan data&#xa;ID, NIK, NAMA" style="html=1;overflow=block;blockSpacing=1;whiteSpace=wrap;shape=parallelogram;perimeter=parallelogramPerimeter;anchorPointDirection=0;fontSize=13.3;fontColor=#3a414a;spacing=3.8;strokeColor=#3a414a;strokeOpacity=100;rounded=1;absoluteArcSize=1;arcSize=9;strokeWidth=0.8;lucidId=u9_n1XM~yD8E;" parent="1" vertex="1">
          <mxGeometry x="784" y="225" width="120" height="61" as="geometry" />
        </mxCell>
        <mxCell id="omr11UL6CWaMo5AYrP2m-40" value="Masukkan ID" style="html=1;overflow=block;blockSpacing=1;whiteSpace=wrap;shape=parallelogram;perimeter=parallelogramPerimeter;anchorPointDirection=0;fontSize=15;fontColor=#3a414a;spacing=3.8;strokeColor=#3a414a;strokeOpacity=100;rounded=1;absoluteArcSize=1;arcSize=9;strokeWidth=0.8;lucidId=k-_nZ6sSE.Xw;" parent="1" vertex="1">
          <mxGeometry x="784" y="317" width="120" height="60" as="geometry" />
        </mxCell>
        <mxCell id="omr11UL6CWaMo5AYrP2m-41" value="Decision" style="html=1;overflow=block;blockSpacing=1;whiteSpace=wrap;rhombus;fontSize=16.7;fontColor=#3a414a;spacing=3.8;strokeColor=#3a414a;strokeOpacity=100;rounded=1;absoluteArcSize=1;arcSize=9;strokeWidth=0.8;lucidId=i._nn.CK0eYF;" parent="1" vertex="1">
          <mxGeometry x="784" y="735" width="120" height="90" as="geometry" />
        </mxCell>
        <mxCell id="omr11UL6CWaMo5AYrP2m-42" value="" style="html=1;jettySize=18;whiteSpace=wrap;fontSize=13;strokeColor=#3a414a;strokeOpacity=100;strokeWidth=0.8;rounded=1;arcSize=12;edgeStyle=orthogonalEdgeStyle;startArrow=none;endArrow=block;endFill=1;exitX=0.5;exitY=1.004;exitPerimeter=0;entryX=0.5;entryY=0.012;entryPerimeter=0;lucidId=S._nlWuLRwyQ;" parent="1" source="omr11UL6CWaMo5AYrP2m-23" target="omr11UL6CWaMo5AYrP2m-41" edge="1">
          <mxGeometry width="100" height="100" relative="1" as="geometry">
            <Array as="points" />
          </mxGeometry>
        </mxCell>
        <mxCell id="omr11UL6CWaMo5AYrP2m-43" value="" style="html=1;jettySize=18;whiteSpace=wrap;fontSize=13.3;fontColor=#333333;fontStyle=1;strokeColor=#3a414a;strokeOpacity=100;strokeWidth=0.8;rounded=1;arcSize=12;edgeStyle=orthogonalEdgeStyle;startArrow=none;endArrow=block;endFill=1;exitX=0.984;exitY=0.5;exitPerimeter=0;lucidId=a~_nPHHW54PT;" parent="1" source="omr11UL6CWaMo5AYrP2m-41" edge="1">
          <mxGeometry width="100" height="100" relative="1" as="geometry">
            <Array as="points">
              <mxPoint x="930" y="780" />
              <mxPoint x="930" y="110" />
            </Array>
            <mxPoint x="930" y="110" as="targetPoint" />
          </mxGeometry>
        </mxCell>
        <mxCell id="omr11UL6CWaMo5AYrP2m-44" value="Yes" style="text;html=1;resizable=0;labelBackgroundColor=default;align=center;verticalAlign=middle;fontStyle=1;fontColor=#333333;fontSize=13.3;" parent="omr11UL6CWaMo5AYrP2m-43" vertex="1">
          <mxGeometry relative="1" as="geometry" />
        </mxCell>
        <mxCell id="omr11UL6CWaMo5AYrP2m-45" value="" style="html=1;jettySize=18;whiteSpace=wrap;fontSize=13.3;fontColor=#333333;fontStyle=1;strokeColor=#3a414a;strokeOpacity=100;strokeWidth=0.8;rounded=1;arcSize=12;edgeStyle=orthogonalEdgeStyle;startArrow=none;endArrow=block;endFill=1;exitX=0.5;exitY=0.988;exitPerimeter=0;entryX=0.5;entryY=-0.006;entryPerimeter=0;lucidId=e~_n-afidMu4;" parent="1" source="omr11UL6CWaMo5AYrP2m-41" target="omr11UL6CWaMo5AYrP2m-47" edge="1">
          <mxGeometry width="100" height="100" relative="1" as="geometry">
            <Array as="points" />
          </mxGeometry>
        </mxCell>
        <mxCell id="omr11UL6CWaMo5AYrP2m-46" value="No" style="text;html=1;resizable=0;labelBackgroundColor=default;align=center;verticalAlign=middle;fontStyle=1;fontColor=#333333;fontSize=13.3;" parent="omr11UL6CWaMo5AYrP2m-45" vertex="1">
          <mxGeometry relative="1" as="geometry" />
        </mxCell>
        <mxCell id="omr11UL6CWaMo5AYrP2m-47" value="Selesai" style="html=1;overflow=block;blockSpacing=1;whiteSpace=wrap;rounded=1;arcSize=50;fontSize=16.7;fontColor=#3a414a;spacing=3.8;strokeColor=#3a414a;strokeOpacity=100;strokeWidth=0.8;lucidId=B~_nVY5h6hzZ;" parent="1" vertex="1">
          <mxGeometry x="664" y="915" width="120" height="60" as="geometry" />
        </mxCell>
        <mxCell id="omr11UL6CWaMo5AYrP2m-48" value="Decision" style="html=1;overflow=block;blockSpacing=1;whiteSpace=wrap;rhombus;fontSize=16.7;fontColor=#3a414a;spacing=3.8;strokeColor=#3a414a;strokeOpacity=100;rounded=1;absoluteArcSize=1;arcSize=9;strokeWidth=0.8;lucidId=1a.nGk5JAy.9;" parent="1" vertex="1">
          <mxGeometry x="525" y="794" width="120" height="90" as="geometry" />
        </mxCell>
        <mxCell id="omr11UL6CWaMo5AYrP2m-49" value="" style="html=1;jettySize=18;whiteSpace=wrap;fontSize=13;strokeColor=#3a414a;strokeOpacity=100;strokeWidth=0.8;rounded=1;arcSize=12;edgeStyle=orthogonalEdgeStyle;startArrow=none;endArrow=block;endFill=1;exitX=0.5;exitY=1.006;exitPerimeter=0;entryX=0.484;entryY=0.016;entryPerimeter=0;lucidId=Ac.naJVj99i6;" parent="1" source="omr11UL6CWaMo5AYrP2m-34" target="omr11UL6CWaMo5AYrP2m-48" edge="1">
          <mxGeometry width="100" height="100" relative="1" as="geometry">
            <Array as="points" />
          </mxGeometry>
        </mxCell>
        <mxCell id="omr11UL6CWaMo5AYrP2m-50" value="" style="html=1;jettySize=18;whiteSpace=wrap;fontSize=13.3;fontColor=#333333;fontStyle=1;strokeColor=#3a414a;strokeOpacity=100;strokeWidth=0.8;rounded=1;arcSize=12;edgeStyle=orthogonalEdgeStyle;startArrow=none;endArrow=block;endFill=1;exitX=0.984;exitY=0.5;exitPerimeter=0;entryX=1;entryY=0.5;entryPerimeter=0;lucidId=Jd.nXorLhAv9;" parent="1" source="omr11UL6CWaMo5AYrP2m-48" target="omr11UL6CWaMo5AYrP2m-9" edge="1">
          <mxGeometry width="100" height="100" relative="1" as="geometry">
            <Array as="points">
              <mxPoint x="725" y="840" />
            </Array>
          </mxGeometry>
        </mxCell>
        <mxCell id="omr11UL6CWaMo5AYrP2m-51" value="Yes" style="text;html=1;resizable=0;labelBackgroundColor=default;align=center;verticalAlign=middle;fontStyle=1;fontColor=#333333;fontSize=13.3;" parent="omr11UL6CWaMo5AYrP2m-50" vertex="1">
          <mxGeometry relative="1" as="geometry" />
        </mxCell>
        <mxCell id="omr11UL6CWaMo5AYrP2m-52" value="" style="html=1;jettySize=18;whiteSpace=wrap;fontSize=13.3;fontColor=#333333;fontStyle=1;strokeColor=#3a414a;strokeOpacity=100;strokeWidth=0.8;rounded=1;arcSize=12;edgeStyle=orthogonalEdgeStyle;startArrow=none;endArrow=block;endFill=1;exitX=0.5;exitY=0.988;exitPerimeter=0;entryX=0.5;entryY=-0.006;entryPerimeter=0;lucidId=9d.nwRdJ_dA6;" parent="1" source="omr11UL6CWaMo5AYrP2m-48" target="omr11UL6CWaMo5AYrP2m-47" edge="1">
          <mxGeometry width="100" height="100" relative="1" as="geometry">
            <Array as="points">
              <mxPoint x="585" y="900" />
              <mxPoint x="724" y="900" />
            </Array>
          </mxGeometry>
        </mxCell>
        <mxCell id="omr11UL6CWaMo5AYrP2m-53" value="No" style="text;html=1;resizable=0;labelBackgroundColor=default;align=center;verticalAlign=middle;fontStyle=1;fontColor=#333333;fontSize=13.3;" parent="omr11UL6CWaMo5AYrP2m-52" vertex="1">
          <mxGeometry relative="1" as="geometry" />
        </mxCell>
        <mxCell id="omr11UL6CWaMo5AYrP2m-54" value="Decision" style="html=1;overflow=block;blockSpacing=1;whiteSpace=wrap;rhombus;fontSize=16.7;fontColor=#3a414a;spacing=3.8;strokeColor=#3a414a;strokeOpacity=100;rounded=1;absoluteArcSize=1;arcSize=9;strokeWidth=0.8;lucidId=ke.n2DGTmabj;" parent="1" vertex="1">
          <mxGeometry x="192" y="676" width="120" height="90" as="geometry" />
        </mxCell>
        <mxCell id="omr11UL6CWaMo5AYrP2m-55" value="" style="html=1;jettySize=18;whiteSpace=wrap;fontSize=13;strokeColor=#3a414a;strokeOpacity=100;strokeWidth=0.8;rounded=1;arcSize=12;edgeStyle=orthogonalEdgeStyle;startArrow=none;endArrow=block;endFill=1;exitX=0.5;exitY=1.004;exitPerimeter=0;entryX=0.5;entryY=0.012;entryPerimeter=0;lucidId=re.nTNduO-fU;" parent="1" source="omr11UL6CWaMo5AYrP2m-17" target="omr11UL6CWaMo5AYrP2m-54" edge="1">
          <mxGeometry width="100" height="100" relative="1" as="geometry">
            <Array as="points" />
          </mxGeometry>
        </mxCell>
        <mxCell id="omr11UL6CWaMo5AYrP2m-56" value="" style="html=1;jettySize=18;whiteSpace=wrap;fontSize=13.3;fontColor=#333333;fontStyle=1;strokeColor=#3a414a;strokeOpacity=100;strokeWidth=0.8;rounded=1;arcSize=12;edgeStyle=orthogonalEdgeStyle;startArrow=none;endArrow=block;endFill=1;exitX=0.984;exitY=0.5;exitPerimeter=0;lucidId=Ae.nPUfviUoF;" parent="1" source="omr11UL6CWaMo5AYrP2m-54" edge="1">
          <mxGeometry width="100" height="100" relative="1" as="geometry">
            <Array as="points" />
            <mxPoint x="417" y="110" as="targetPoint" />
          </mxGeometry>
        </mxCell>
        <mxCell id="omr11UL6CWaMo5AYrP2m-57" value="Yes" style="text;html=1;resizable=0;labelBackgroundColor=default;align=center;verticalAlign=middle;fontStyle=1;fontColor=#333333;fontSize=13.3;" parent="omr11UL6CWaMo5AYrP2m-56" vertex="1">
          <mxGeometry relative="1" as="geometry" />
        </mxCell>
        <mxCell id="omr11UL6CWaMo5AYrP2m-58" value="" style="html=1;jettySize=18;whiteSpace=wrap;fontSize=13.3;fontColor=#333333;fontStyle=1;strokeColor=#3a414a;strokeOpacity=100;strokeWidth=0.8;rounded=1;arcSize=12;edgeStyle=orthogonalEdgeStyle;startArrow=none;endArrow=block;endFill=1;exitX=0.5;exitY=0.988;exitPerimeter=0;entryX=0.5;entryY=-0.006;entryPerimeter=0;lucidId=Ne.n9oDrmI5V;" parent="1" source="omr11UL6CWaMo5AYrP2m-54" target="omr11UL6CWaMo5AYrP2m-47" edge="1">
          <mxGeometry width="100" height="100" relative="1" as="geometry">
            <Array as="points">
              <mxPoint x="252" y="900" />
              <mxPoint x="724" y="900" />
            </Array>
          </mxGeometry>
        </mxCell>
        <mxCell id="omr11UL6CWaMo5AYrP2m-59" value="No" style="text;html=1;resizable=0;labelBackgroundColor=default;align=center;verticalAlign=middle;fontStyle=1;fontColor=#333333;fontSize=13.3;" parent="omr11UL6CWaMo5AYrP2m-58" vertex="1">
          <mxGeometry relative="1" as="geometry" />
        </mxCell>
        <mxCell id="omr11UL6CWaMo5AYrP2m-60" value="" style="html=1;jettySize=18;whiteSpace=wrap;fontSize=13;strokeColor=#3a414a;strokeOpacity=100;strokeWidth=0.8;rounded=1;arcSize=12;edgeStyle=orthogonalEdgeStyle;startArrow=none;endArrow=block;endFill=1;entryX=0.5;entryY=-0.006;entryPerimeter=0;lucidId=fh.nGcytCEA3;" parent="1" target="omr11UL6CWaMo5AYrP2m-6" edge="1">
          <mxGeometry width="100" height="100" relative="1" as="geometry">
            <Array as="points" />
            <mxPoint x="1050" y="110" as="sourcePoint" />
          </mxGeometry>
        </mxCell>
        <mxCell id="omr11UL6CWaMo5AYrP2m-61" value="Exit" style="html=1;overflow=block;blockSpacing=1;whiteSpace=wrap;shape=process;fontSize=16.7;fontColor=#3a414a;spacing=3.8;strokeColor=#3a414a;strokeOpacity=100;rounded=1;absoluteArcSize=1;arcSize=9;strokeWidth=0.8;lucidId=mh.n45oxK9Om;" parent="1" vertex="1">
          <mxGeometry x="1170" y="135" width="120" height="60" as="geometry" />
        </mxCell>
        <mxCell id="omr11UL6CWaMo5AYrP2m-62" value="Decision" style="html=1;overflow=block;blockSpacing=1;whiteSpace=wrap;rhombus;fontSize=16.7;fontColor=#3a414a;spacing=3.8;strokeColor=#3a414a;strokeOpacity=100;rounded=1;absoluteArcSize=1;arcSize=9;strokeWidth=0.8;lucidId=Xh.nRzp_Eo0Z;" parent="1" vertex="1">
          <mxGeometry x="1170" y="231" width="120" height="90" as="geometry" />
        </mxCell>
        <mxCell id="omr11UL6CWaMo5AYrP2m-63" value="" style="html=1;jettySize=18;whiteSpace=wrap;fontSize=13;strokeColor=#3a414a;strokeOpacity=100;strokeWidth=0.8;rounded=1;arcSize=12;edgeStyle=orthogonalEdgeStyle;startArrow=none;endArrow=block;endFill=1;exitX=0.5;exitY=1.006;exitPerimeter=0;entryX=0.5;entryY=0.012;entryPerimeter=0;lucidId=7h.nKqEapYyb;" parent="1" source="omr11UL6CWaMo5AYrP2m-61" target="omr11UL6CWaMo5AYrP2m-62" edge="1">
          <mxGeometry width="100" height="100" relative="1" as="geometry">
            <Array as="points" />
          </mxGeometry>
        </mxCell>
        <mxCell id="omr11UL6CWaMo5AYrP2m-64" value="" style="html=1;jettySize=18;whiteSpace=wrap;fontSize=13.3;fontColor=#333333;fontStyle=1;strokeColor=#3a414a;strokeOpacity=100;strokeWidth=0.8;rounded=1;arcSize=12;edgeStyle=orthogonalEdgeStyle;startArrow=none;endArrow=block;endFill=1;exitX=0.5;exitY=0.988;exitPerimeter=0;entryX=0.5;entryY=-0.006;entryPerimeter=0;lucidId=Ci.n-z4~HjcW;" parent="1" source="omr11UL6CWaMo5AYrP2m-62" target="omr11UL6CWaMo5AYrP2m-47" edge="1">
          <mxGeometry width="100" height="100" relative="1" as="geometry">
            <Array as="points">
              <mxPoint x="1230" y="900" />
              <mxPoint x="724" y="900" />
            </Array>
          </mxGeometry>
        </mxCell>
        <mxCell id="omr11UL6CWaMo5AYrP2m-65" value="Yes" style="text;html=1;resizable=0;labelBackgroundColor=default;align=center;verticalAlign=middle;fontStyle=1;fontColor=#333333;fontSize=13.3;" parent="omr11UL6CWaMo5AYrP2m-64" vertex="1">
          <mxGeometry relative="1" as="geometry" />
        </mxCell>
        <mxCell id="omr11UL6CWaMo5AYrP2m-66" value="" style="html=1;jettySize=18;whiteSpace=wrap;fontSize=13.3;fontColor=#333333;fontStyle=1;strokeColor=#3a414a;strokeOpacity=100;strokeWidth=0.8;rounded=1;arcSize=12;edgeStyle=orthogonalEdgeStyle;startArrow=none;endArrow=block;endFill=1;exitX=0.016;exitY=0.5;exitPerimeter=0;lucidId=qj.nnPVm8y0g;" parent="1" source="omr11UL6CWaMo5AYrP2m-62" edge="1">
          <mxGeometry width="100" height="100" relative="1" as="geometry">
            <Array as="points">
              <mxPoint x="1140" y="276" />
              <mxPoint x="1140" y="110" />
            </Array>
            <mxPoint x="1129" y="110" as="targetPoint" />
          </mxGeometry>
        </mxCell>
        <mxCell id="omr11UL6CWaMo5AYrP2m-67" value="No" style="text;html=1;resizable=0;labelBackgroundColor=default;align=center;verticalAlign=middle;fontStyle=1;fontColor=#333333;fontSize=13.3;" parent="omr11UL6CWaMo5AYrP2m-66" vertex="1">
          <mxGeometry relative="1" as="geometry" />
        </mxCell>
        <mxCell id="omr11UL6CWaMo5AYrP2m-71" style="edgeStyle=orthogonalEdgeStyle;rounded=0;orthogonalLoop=1;jettySize=auto;html=1;fontSize=12;entryX=0.5;entryY=1;entryDx=0;entryDy=0;" parent="1" source="omr11UL6CWaMo5AYrP2m-68" target="omr11UL6CWaMo5AYrP2m-72" edge="1">
          <mxGeometry relative="1" as="geometry">
            <mxPoint x="1050" y="350" as="targetPoint" />
          </mxGeometry>
        </mxCell>
        <mxCell id="omr11UL6CWaMo5AYrP2m-68" value="&lt;font style=&quot;font-size: 12px;&quot;&gt;Tampilan data, &lt;br&gt;NIK,Nama,&lt;br style=&quot;border-color: var(--border-color);&quot;&gt;Nomor Telepon&lt;br style=&quot;border-color: var(--border-color);&quot;&gt;,Bidang Keluhan,&lt;br style=&quot;border-color: var(--border-color);&quot;&gt;Isi Pengaduan&lt;/font&gt;" style="html=1;overflow=block;blockSpacing=1;whiteSpace=wrap;shape=parallelogram;perimeter=parallelogramPerimeter;anchorPointDirection=0;fontSize=13.3;fontColor=#3a414a;spacing=3.8;strokeColor=#3a414a;strokeOpacity=100;rounded=1;absoluteArcSize=1;arcSize=9;strokeWidth=0.8;lucidId=Tj.nc5exCr0s;" parent="1" vertex="1">
          <mxGeometry x="980" y="225" width="140" height="86" as="geometry" />
        </mxCell>
        <mxCell id="omr11UL6CWaMo5AYrP2m-73" style="edgeStyle=orthogonalEdgeStyle;rounded=0;orthogonalLoop=1;jettySize=auto;html=1;fontSize=12;" parent="1" source="omr11UL6CWaMo5AYrP2m-72" edge="1">
          <mxGeometry relative="1" as="geometry">
            <mxPoint x="950" y="110" as="targetPoint" />
          </mxGeometry>
        </mxCell>
        <mxCell id="omr11UL6CWaMo5AYrP2m-76" style="edgeStyle=orthogonalEdgeStyle;rounded=0;orthogonalLoop=1;jettySize=auto;html=1;fontSize=12;" parent="1" source="omr11UL6CWaMo5AYrP2m-72" target="omr11UL6CWaMo5AYrP2m-47" edge="1">
          <mxGeometry relative="1" as="geometry">
            <Array as="points">
              <mxPoint x="1050" y="870" />
              <mxPoint x="724" y="870" />
            </Array>
          </mxGeometry>
        </mxCell>
        <mxCell id="omr11UL6CWaMo5AYrP2m-72" value="Decision" style="html=1;overflow=block;blockSpacing=1;whiteSpace=wrap;rhombus;fontSize=16.7;fontColor=#3a414a;spacing=3.8;strokeColor=#3a414a;strokeOpacity=100;rounded=1;absoluteArcSize=1;arcSize=9;strokeWidth=0.8;lucidId=Xh.nRzp_Eo0Z;direction=west;" parent="1" vertex="1">
          <mxGeometry x="990" y="345" width="120" height="90" as="geometry" />
        </mxCell>
        <mxCell id="omr11UL6CWaMo5AYrP2m-74" value="Yes" style="text;html=1;resizable=0;labelBackgroundColor=default;align=center;verticalAlign=middle;fontStyle=1;fontColor=#333333;fontSize=13.3;" parent="1" vertex="1">
          <mxGeometry x="939.9655172413793" y="468.95450407901046" as="geometry">
            <mxPoint x="9" y="-241" as="offset" />
          </mxGeometry>
        </mxCell>
        <mxCell id="CbqT1t1OlGqayhECcvoB-2" value="&lt;b&gt;Selamat Datang&lt;/b&gt;" style="html=1;overflow=block;blockSpacing=1;whiteSpace=wrap;shape=parallelogram;perimeter=parallelogramPerimeter;anchorPointDirection=0;fontSize=13.3;fontColor=#3a414a;spacing=3.8;strokeColor=#3a414a;strokeOpacity=100;rounded=1;absoluteArcSize=1;arcSize=9;strokeWidth=0.8;lucidId=u9_n1XM~yD8E;" parent="1" vertex="1">
          <mxGeometry x="665" y="30" width="120" height="61" as="geometry" />
        </mxCell>
      </root>
    </mxGraphModel>
  </diagram>
</mxfile>
